<svg width="219" height="219" viewBox="0 0 219 219" fill="none" xmlns="http://www.w3.org/2000/svg">
<path d="M219 0H0V219H219V0Z" fill="black"/>
<path d="M109.5 206.655L25.3594 158.077V60.9226L109.5 12.3451L193.641 60.9226V158.077L109.5 206.655ZM31.321 154.634L109.5 199.769L187.679 154.634V64.3617L109.5 19.2274L31.321 64.3617V154.634Z" fill="white"/>
<path d="M56.1614 45.4182L80.7502 36.3013L109.5 113.848L138.25 36.3013L162.839 45.4182L125.783 145.367C117.692 141.068 111.982 134.908 109.691 128.001L109.5 127.422L109.309 128.001C107.018 134.904 101.308 141.064 93.217 145.367L56.1614 45.4182Z" fill="white"/>
<path d="M80.6285 36.5608L109.119 113.406L109.5 114.432L109.881 113.406L138.372 36.5608L162.579 45.5358L125.674 145.075C117.737 140.805 112.14 134.734 109.885 127.937L109.5 126.777L109.115 127.937C106.86 134.734 101.263 140.805 93.3265 145.075L56.4209 45.5358L80.6285 36.5608ZM138.128 36.0377L109.496 113.259L80.8637 36.0377L55.8937 45.2965L93.0993 145.651C101.21 141.393 107.119 135.22 109.492 128.062C111.864 135.22 117.773 141.393 125.884 145.651L163.09 45.2965L138.12 36.0377H138.128Z" fill="white"/>
<path d="M109.5 178.355C105.586 167.494 93.298 158.844 77.818 156.021C93.298 153.203 105.586 144.548 109.5 133.687C113.414 144.548 125.702 153.199 141.182 156.021C125.702 158.84 113.414 167.494 109.5 178.355Z" fill="white"/>
<path d="M109.5 134.271C113.572 144.864 125.073 153.028 140.095 156.021C125.077 159.014 113.572 167.178 109.5 177.771C105.428 167.178 93.9266 159.014 78.9049 156.021C93.9226 153.028 105.428 144.864 109.5 134.271ZM109.5 133.067C105.716 144.471 92.9574 153.381 76.6216 156.021C92.9614 158.661 105.72 167.567 109.5 178.976C113.284 167.572 126.043 158.661 142.378 156.021C126.039 153.381 113.28 144.475 109.5 133.067Z" fill="white"/>
</svg>
